# xmcd CD database file
#
# Track frame offsets:
#	150
#	31916
#	55989
#	89060
#	110701
#	135257
#	156171
#	178151
#	204258
#
# Disc length: 3018 seconds
#
# Revision: 0
# Processed by: cddbd v1.5PL3 Copyright (c) Steve Scherf et al.
# Submitted via: CDex 1.51
#
DISCID=780bc809
DTITLE=David Antony Clark - Sacred Sites
DYEAR=2004
DGENRE=New Age
TTITLE0=The Cape of Restless Souls
TTITLE1=To the Ice God
TTITLE2=Midnight in The Temple of Baal
TTITLE3=The Abbey and the Thorntree
TTITLE4=Ghosts of Culloden
TTITLE5=The Marthyrs' Stone
TTITLE6=Brú na Bóinne (Newgrange)
TTITLE7=Machu pichu
TTITLE8=The Dreaming Pool
EXTD=YEAR: 2004
EXTT0=
EXTT1=
EXTT2=
EXTT3=
EXTT4=
EXTT5=
EXTT6=
EXTT7=
EXTT8=
PLAYORDER=
